<?xml version="1.0" standalone="no"?>
<!DOCTYPE svg PUBLIC "-//W3C//DTD SVG 20010904//EN"
 "http://www.w3.org/TR/2001/REC-SVG-20010904/DTD/svg10.dtd">
<svg version="1.0" xmlns="http://www.w3.org/2000/svg"
 width="477.000000pt" height="260.000000pt" viewBox="0 0 477.000000 260.000000"
 preserveAspectRatio="xMidYMid meet">

<g transform="translate(0.000000,260.000000) scale(0.100000,-0.100000)"
fill="#000000" stroke="none">
<path d="M4110 2235 l0 -65 64 0 64 0 4 -207 c3 -200 4 -210 28 -251 31 -54
75 -82 143 -89 53 -5 167 12 167 26 0 4 -7 31 -15 59 l-16 52 -44 -7 c-33 -4
-51 -1 -70 11 l-25 16 0 260 0 260 -150 0 -150 0 0 -65z"/>
<path d="M60 1941 l0 -311 80 0 80 0 0 100 0 100 63 0 c165 0 266 81 267 213
0 84 -34 143 -105 180 -35 19 -61 22 -212 25 l-173 4 0 -311z m293 168 c30
-16 37 -28 37 -67 0 -22 -8 -41 -25 -57 -20 -21 -34 -25 -85 -25 l-60 0 0 80
0 80 56 0 c30 0 65 -5 77 -11z"/>
<path d="M810 2111 c-112 -37 -180 -128 -180 -242 0 -74 19 -121 69 -170 50
-51 120 -79 197 -79 47 0 170 35 180 51 3 6 -4 33 -16 59 l-23 48 -40 -14
c-88 -31 -197 -3 -197 50 0 3 67 6 150 6 l149 0 7 34 c8 44 -11 130 -37 173
-31 50 -98 85 -172 89 -34 2 -73 0 -87 -5z m130 -141 c34 -34 24 -40 -60 -40
-64 0 -80 3 -80 15 0 8 12 21 28 29 39 22 88 20 112 -4z"/>
<path d="M1515 2102 c-22 -10 -55 -36 -73 -56 -34 -39 -39 -37 -44 24 l-3 35
-67 3 -68 3 0 -241 0 -240 80 0 80 0 0 121 c0 106 3 126 21 156 32 51 90 77
160 70 l57 -5 16 62 c9 38 11 65 6 70 -19 19 -123 18 -165 -2z"/>
<path d="M1930 2101 c-85 -30 -117 -76 -111 -156 4 -41 74 -92 163 -119 46
-15 93 -32 103 -40 56 -41 -75 -50 -169 -11 -66 27 -61 29 -107 -43 -21 -32
-21 -34 -3 -47 36 -28 129 -57 195 -62 91 -7 171 17 221 67 33 33 38 44 38 84
0 72 -32 101 -166 145 -74 24 -109 41 -109 51 0 31 93 24 186 -14 10 -5 25 7
48 39 39 54 35 62 -42 95 -73 32 -175 37 -247 11z"/>
<path d="M2540 2111 c-114 -35 -175 -119 -175 -241 0 -81 15 -121 64 -173 83
-90 235 -100 336 -22 112 85 112 305 1 390 -62 47 -157 67 -226 46z m119 -142
c39 -42 39 -156 0 -198 -34 -36 -91 -26 -114 20 -29 55 -12 177 27 192 30 12
68 6 87 -14z"/>
<path d="M3207 2110 c-16 -5 -43 -20 -61 -34 -36 -27 -46 -25 -46 11 0 22 -3
23 -70 23 l-70 0 0 -240 0 -240 85 0 85 0 0 159 0 160 26 20 c29 22 60 27 84
11 12 -7 16 -41 18 -180 l3 -170 80 0 79 0 0 183 c0 170 -2 186 -22 227 -35
69 -107 95 -191 70z"/>
<path d="M3670 2106 c-65 -19 -122 -44 -118 -53 2 -5 14 -29 27 -54 l24 -47
53 19 c65 23 122 24 152 3 33 -23 27 -31 -30 -39 -82 -10 -160 -34 -195 -61
-64 -49 -68 -148 -7 -209 55 -55 146 -59 233 -10 23 14 45 25 46 25 2 0 5 -10
7 -22 3 -21 9 -23 71 -26 l67 -3 0 154 c0 175 -13 237 -58 280 -54 52 -173 71
-272 43z m170 -297 c0 -25 -6 -32 -35 -45 -58 -24 -115 -16 -115 16 0 32 50
57 118 59 29 1 32 -2 32 -30z"/>
<path d="M1772 1089 c-102 -20 -211 -111 -260 -217 -22 -48 -26 -71 -26 -147
0 -77 4 -99 28 -151 35 -77 112 -154 191 -191 52 -24 73 -28 150 -28 77 0 98
4 150 28 79 37 156 114 192 191 24 52 28 74 28 151 0 78 -4 98 -28 150 -76
164 -246 250 -425 214z"/>
<path d="M2950 1035 l0 -65 64 0 64 0 4 -207 c3 -200 4 -210 28 -251 31 -54
75 -82 143 -89 53 -5 167 12 167 26 0 4 -7 31 -15 59 l-16 52 -44 -7 c-33 -4
-51 -1 -70 11 l-25 16 0 260 0 260 -150 0 -150 0 0 -65z"/>
<path d="M2390 740 l0 -312 163 4 c180 4 217 15 270 78 67 80 35 209 -59 240
l-36 12 31 15 c64 32 92 130 54 194 -10 16 -38 39 -63 52 -39 19 -65 22 -202
25 l-158 4 0 -312z m261 170 c27 -15 25 -64 -3 -84 -12 -9 -37 -16 -55 -16
l-33 0 0 55 0 55 36 0 c19 0 44 -5 55 -10z m29 -240 c50 -50 7 -110 -79 -110
l-41 0 0 65 0 65 50 0 c37 0 55 -5 70 -20z"/>
<path d="M3700 911 c-114 -35 -175 -119 -175 -241 0 -81 15 -121 64 -173 83
-90 235 -100 336 -22 112 85 112 305 1 390 -62 47 -157 67 -226 46z m119 -142
c39 -42 39 -156 0 -198 -34 -36 -91 -26 -114 20 -29 55 -12 177 27 192 30 12
68 6 87 -14z"/>
<path d="M4241 906 c-120 -40 -159 -165 -78 -253 l20 -22 -27 -31 c-32 -39
-34 -87 -5 -124 l22 -27 -34 -28 c-28 -24 -34 -35 -34 -71 0 -35 6 -47 32 -70
41 -37 124 -54 225 -47 93 8 163 35 209 83 31 32 34 41 34 94 0 43 -5 63 -19
79 -29 32 -108 51 -210 51 -97 0 -120 7 -114 34 2 14 17 18 78 20 131 4 194
54 188 149 l-3 47 43 0 42 0 0 60 0 60 -82 0 c-46 0 -119 2 -163 5 -54 3 -94
0 -124 -9z m131 -113 c37 -33 11 -103 -39 -103 -28 0 -63 33 -63 60 0 26 34
60 62 60 12 0 30 -7 40 -17z m79 -399 c35 -42 -92 -82 -174 -55 -41 14 -51 31
-32 57 11 17 24 19 103 16 65 -2 94 -8 103 -18z"/>
</g>
</svg>
